<mxfile host="app.diagrams.net" agent="Mozilla/5.0 (Windows NT 10.0; Win64; x64) AppleWebKit/537.36 (KHTML, like Gecko) Chrome/140.0.0.0 Safari/537.36 Edg/140.0.0.0" version="28.2.5">
  <diagram name="PÃ¡gina-1" id="iYPqMkfysZ-vGRSs4PS1">
    <mxGraphModel dx="1668" dy="925" grid="1" gridSize="10" guides="1" tooltips="1" connect="1" arrows="1" fold="1" page="1" pageScale="1" pageWidth="827" pageHeight="1169" math="0" shadow="0">
      <root>
        <mxCell id="0" />
        <mxCell id="1" parent="0" />
        <mxCell id="Falzy4JnLo0zfLjaW_zy-3" value="" style="edgeStyle=orthogonalEdgeStyle;rounded=0;orthogonalLoop=1;jettySize=auto;html=1;" edge="1" parent="1" source="Falzy4JnLo0zfLjaW_zy-1" target="Falzy4JnLo0zfLjaW_zy-2">
          <mxGeometry relative="1" as="geometry" />
        </mxCell>
        <mxCell id="Falzy4JnLo0zfLjaW_zy-1" value="I" style="ellipse;whiteSpace=wrap;html=1;" vertex="1" parent="1">
          <mxGeometry x="50" y="60" width="120" height="80" as="geometry" />
        </mxCell>
        <mxCell id="Falzy4JnLo0zfLjaW_zy-42" value="" style="edgeStyle=orthogonalEdgeStyle;rounded=0;orthogonalLoop=1;jettySize=auto;html=1;" edge="1" parent="1" source="Falzy4JnLo0zfLjaW_zy-2" target="Falzy4JnLo0zfLjaW_zy-41">
          <mxGeometry relative="1" as="geometry" />
        </mxCell>
        <mxCell id="Falzy4JnLo0zfLjaW_zy-2" value="ler num" style="shape=parallelogram;perimeter=parallelogramPerimeter;whiteSpace=wrap;html=1;fixedSize=1;" vertex="1" parent="1">
          <mxGeometry x="250" y="70" width="120" height="60" as="geometry" />
        </mxCell>
        <mxCell id="Falzy4JnLo0zfLjaW_zy-44" value="" style="edgeStyle=orthogonalEdgeStyle;rounded=0;orthogonalLoop=1;jettySize=auto;html=1;" edge="1" parent="1" source="Falzy4JnLo0zfLjaW_zy-41" target="Falzy4JnLo0zfLjaW_zy-43">
          <mxGeometry relative="1" as="geometry" />
        </mxCell>
        <mxCell id="Falzy4JnLo0zfLjaW_zy-56" value="sim" style="edgeLabel;html=1;align=center;verticalAlign=middle;resizable=0;points=[];" vertex="1" connectable="0" parent="Falzy4JnLo0zfLjaW_zy-44">
          <mxGeometry x="-0.2706" y="3" relative="1" as="geometry">
            <mxPoint as="offset" />
          </mxGeometry>
        </mxCell>
        <mxCell id="Falzy4JnLo0zfLjaW_zy-48" value="" style="edgeStyle=orthogonalEdgeStyle;rounded=0;orthogonalLoop=1;jettySize=auto;html=1;" edge="1" parent="1" source="Falzy4JnLo0zfLjaW_zy-41" target="Falzy4JnLo0zfLjaW_zy-47">
          <mxGeometry relative="1" as="geometry" />
        </mxCell>
        <mxCell id="Falzy4JnLo0zfLjaW_zy-57" value="nao" style="edgeLabel;html=1;align=center;verticalAlign=middle;resizable=0;points=[];" vertex="1" connectable="0" parent="Falzy4JnLo0zfLjaW_zy-48">
          <mxGeometry x="0.3235" relative="1" as="geometry">
            <mxPoint as="offset" />
          </mxGeometry>
        </mxCell>
        <mxCell id="Falzy4JnLo0zfLjaW_zy-41" value="num = 0" style="rhombus;whiteSpace=wrap;html=1;" vertex="1" parent="1">
          <mxGeometry x="470" y="60" width="80" height="80" as="geometry" />
        </mxCell>
        <mxCell id="Falzy4JnLo0zfLjaW_zy-46" value="" style="edgeStyle=orthogonalEdgeStyle;rounded=0;orthogonalLoop=1;jettySize=auto;html=1;" edge="1" parent="1" source="Falzy4JnLo0zfLjaW_zy-43" target="Falzy4JnLo0zfLjaW_zy-45">
          <mxGeometry relative="1" as="geometry" />
        </mxCell>
        <mxCell id="Falzy4JnLo0zfLjaW_zy-43" value="escrever &quot;digitou 0 - vai sair do programa" style="shape=parallelogram;perimeter=parallelogramPerimeter;whiteSpace=wrap;html=1;fixedSize=1;" vertex="1" parent="1">
          <mxGeometry x="610" y="70" width="200" height="60" as="geometry" />
        </mxCell>
        <mxCell id="Falzy4JnLo0zfLjaW_zy-45" value="f" style="ellipse;whiteSpace=wrap;html=1;" vertex="1" parent="1">
          <mxGeometry x="950" y="60" width="80" height="80" as="geometry" />
        </mxCell>
        <mxCell id="Falzy4JnLo0zfLjaW_zy-51" value="" style="edgeStyle=orthogonalEdgeStyle;rounded=0;orthogonalLoop=1;jettySize=auto;html=1;" edge="1" parent="1" source="Falzy4JnLo0zfLjaW_zy-47" target="Falzy4JnLo0zfLjaW_zy-50">
          <mxGeometry relative="1" as="geometry" />
        </mxCell>
        <mxCell id="Falzy4JnLo0zfLjaW_zy-58" value="sim" style="edgeLabel;html=1;align=center;verticalAlign=middle;resizable=0;points=[];" vertex="1" connectable="0" parent="Falzy4JnLo0zfLjaW_zy-51">
          <mxGeometry x="-0.1944" y="-2" relative="1" as="geometry">
            <mxPoint as="offset" />
          </mxGeometry>
        </mxCell>
        <mxCell id="Falzy4JnLo0zfLjaW_zy-53" value="" style="edgeStyle=orthogonalEdgeStyle;rounded=0;orthogonalLoop=1;jettySize=auto;html=1;" edge="1" parent="1" source="Falzy4JnLo0zfLjaW_zy-47" target="Falzy4JnLo0zfLjaW_zy-52">
          <mxGeometry relative="1" as="geometry" />
        </mxCell>
        <mxCell id="Falzy4JnLo0zfLjaW_zy-59" value="nao" style="edgeLabel;html=1;align=center;verticalAlign=middle;resizable=0;points=[];" vertex="1" connectable="0" parent="Falzy4JnLo0zfLjaW_zy-53">
          <mxGeometry x="0.088" y="-1" relative="1" as="geometry">
            <mxPoint x="1" as="offset" />
          </mxGeometry>
        </mxCell>
        <mxCell id="Falzy4JnLo0zfLjaW_zy-47" value="num mod 2 = = 0" style="rhombus;whiteSpace=wrap;html=1;" vertex="1" parent="1">
          <mxGeometry x="435" y="200" width="150" height="110" as="geometry" />
        </mxCell>
        <mxCell id="Falzy4JnLo0zfLjaW_zy-55" style="edgeStyle=orthogonalEdgeStyle;rounded=0;orthogonalLoop=1;jettySize=auto;html=1;entryX=0.5;entryY=0;entryDx=0;entryDy=0;" edge="1" parent="1" source="Falzy4JnLo0zfLjaW_zy-50" target="Falzy4JnLo0zfLjaW_zy-2">
          <mxGeometry relative="1" as="geometry">
            <Array as="points">
              <mxPoint x="1050" y="255" />
              <mxPoint x="1050" y="30" />
              <mxPoint x="310" y="30" />
            </Array>
          </mxGeometry>
        </mxCell>
        <mxCell id="Falzy4JnLo0zfLjaW_zy-50" value="escrever &quot;par&quot;" style="shape=parallelogram;perimeter=parallelogramPerimeter;whiteSpace=wrap;html=1;fixedSize=1;" vertex="1" parent="1">
          <mxGeometry x="680" y="225" width="120" height="60" as="geometry" />
        </mxCell>
        <mxCell id="Falzy4JnLo0zfLjaW_zy-54" value="" style="edgeStyle=orthogonalEdgeStyle;rounded=0;orthogonalLoop=1;jettySize=auto;html=1;" edge="1" parent="1" source="Falzy4JnLo0zfLjaW_zy-52" target="Falzy4JnLo0zfLjaW_zy-2">
          <mxGeometry relative="1" as="geometry">
            <Array as="points">
              <mxPoint x="280" y="160" />
              <mxPoint x="280" y="160" />
            </Array>
          </mxGeometry>
        </mxCell>
        <mxCell id="Falzy4JnLo0zfLjaW_zy-52" value="escrever &quot;impar&quot;" style="shape=parallelogram;perimeter=parallelogramPerimeter;whiteSpace=wrap;html=1;fixedSize=1;" vertex="1" parent="1">
          <mxGeometry x="220" y="225" width="120" height="60" as="geometry" />
        </mxCell>
      </root>
    </mxGraphModel>
  </diagram>
</mxfile>
